<svg width="120" height="114" viewBox="0 0 120 114" fill="none" xmlns="http://www.w3.org/2000/svg">
<path d="M92.7652 108.823H28.5551C23.7845 108.823 19.9998 104.803 20.2857 100.04L24.6895 27.0172H96.6293L101.033 100.04C101.322 104.803 97.5358 108.823 92.7652 108.823Z" fill="#006D77"/>
<path d="M92.7651 113.128H28.5551C25.0995 113.128 21.7583 111.685 19.389 109.169C17.0197 106.652 15.78 103.231 15.9892 99.7811L20.393 26.7564C20.5297 24.4833 22.4137 22.7095 24.6909 22.7095H96.6307C98.908 22.7095 100.791 24.4833 100.929 26.7564L105.332 99.7811C105.54 103.231 104.3 106.652 101.931 109.169C99.562 111.685 96.2207 113.128 92.7651 113.128ZM28.7447 31.322L24.5849 100.3C24.518 101.406 24.9001 102.459 25.6587 103.266C26.4187 104.073 27.4479 104.517 28.5551 104.517H92.7651C93.8724 104.517 94.9015 104.072 95.6615 103.266C96.4215 102.46 96.8022 101.406 96.7353 100.3L92.5755 31.322H28.7447Z" fill="white"/>
<path d="M84.1081 23.4472H75.497C75.497 15.2671 68.8424 8.61108 60.6608 8.61108C52.4807 8.61108 45.8247 15.2657 45.8247 23.4472H37.2136C37.2136 10.5188 47.731 0 60.6608 0C73.5893 0 84.1081 10.5188 84.1081 23.4472Z" fill="white"/>
<path d="M51.9424 95.5641C50.163 95.5641 48.498 94.4527 47.8774 92.6775C47.0937 90.4323 48.2776 87.9766 50.5228 87.1929C87.9597 74.1208 107.919 60.9357 111.092 53.6676C111.319 53.146 111.426 52.6775 111.38 52.4265C110.845 51.9495 108.434 50.7252 97.9681 51.0835C95.5919 51.1826 93.5991 49.3042 93.5182 46.9279C93.4373 44.5517 95.2976 42.5589 97.6739 42.4781C106.622 42.1727 116.406 42.3902 119.248 48.8984C120.005 50.6331 120.574 53.4682 118.983 57.112C114.05 68.4117 89.5188 82.6956 53.3606 95.3215C52.8921 95.4874 52.4124 95.5641 51.9424 95.5641Z" fill="white"/>
<path d="M11.4166 87.4997C6.30855 87.4997 2.27702 86.1135 0.586878 82.1964C-2.84919 74.2323 9.46013 64.9463 20.3917 58.5581C22.4458 57.3574 25.0814 58.0505 26.2807 60.1032C27.4799 62.1559 26.7883 64.7929 24.7355 65.9922C15.4077 71.4433 10.156 76.3799 8.88977 78.6557C11.4905 79.2888 22.8404 79.7671 65.0159 62.446C67.215 61.5437 69.7307 62.5938 70.6343 64.7929C71.538 66.9921 70.4865 69.5077 68.2874 70.4114C57.3321 74.9101 41.5533 81.0096 28.5969 84.5168C22.6354 86.1303 16.494 87.4997 11.4166 87.4997Z" fill="white"/>
</svg>
