<svg width="150" height="60" viewBox="0 0 150 60" fill="none" xmlns="http://www.w3.org/2000/svg">
<path d="M12.443 47.8881C10.6682 47.8881 8.90418 47.3965 7.15103 46.4133C5.40511 45.4229 3.88331 43.8324 2.58201 41.6419C1.28793 39.4549 0.463769 36.9102 0.109525 34.0075L0.0516895 33.2701C-0.143507 30.6314 0.214353 28.0613 1.12165 25.5635C2.03618 23.0585 3.50738 20.9222 5.53163 19.1582C7.55588 17.3942 10.0573 16.3459 13.0358 16.0061C13.5455 15.9483 14.0407 15.9194 14.5251 15.9194C15.718 15.9194 16.9253 16.1182 18.1398 16.5122C19.3616 16.899 21.0172 18.2906 23.0993 20.6908C22.8462 17.5677 22.6113 15.6808 22.3908 15.0229C22.4088 15.0229 22.7161 15.0229 23.3161 15.0229C25.156 15.0229 26.9236 15.2254 28.6226 15.6302C30.3287 16.0278 31.4601 16.6387 32.0204 17.4665C32.7217 18.6738 33.1482 20.2245 33.2928 22.1223C33.2928 22.2199 33.3217 22.8235 33.3796 23.9296C33.4446 25.0394 33.4157 26.8214 33.2928 29.2795C33.1265 32.0267 33.141 34.8461 33.3362 37.7379C33.5386 40.6297 35.4761 42.2491 39.1487 42.5961C42.8213 42.9432 44.6286 43.5757 44.5708 44.4903C41.2055 46.5543 38.1366 47.4941 35.3604 47.3098C32.5915 47.129 30.3179 46.6085 28.5358 45.7482C26.7501 44.8915 25.4488 43.8071 24.6319 42.4949C23.8222 41.1864 23.2185 39.0501 22.8245 36.0896C20.3448 43.3408 17.3916 47.2339 13.9612 47.7724C13.4407 47.852 12.9346 47.8881 12.443 47.8881ZM15.6095 40.1526C16.8602 39.9718 17.941 39.1549 18.8483 37.709C19.7628 36.2559 20.5328 34.4774 21.1618 32.3737C21.7871 30.2627 22.2606 28.0215 22.5787 25.6503C22.5968 25.3249 22.586 25.0068 22.5498 24.696C22.4811 23.4344 21.9895 22.4621 21.075 21.7753C20.1677 21.0921 18.9929 20.7487 17.547 20.7487C15.3384 20.7487 13.5744 21.5258 12.255 23.0766C11.2212 24.2911 10.4983 25.7298 10.0862 27.3853C9.68858 28.9107 9.54399 30.3928 9.65243 31.8387L9.68135 32.1279C9.91269 34.2606 10.5236 36.1294 11.5176 37.7379C12.5081 39.3501 13.8094 40.1526 15.4216 40.1526H15.6095ZM28.4924 11.4516H28.5792C26.5152 10.7105 24.7223 10.3382 23.2005 10.3382C21.9751 10.3382 21.2196 10.4756 20.9304 10.7431C20.9485 10.7431 20.8473 10.3924 20.6268 9.68757C20.3737 8.92848 20.2219 8.14046 20.1641 7.33076L20.0918 6.43431C20.0701 6.06922 20.1641 5.70775 20.3665 5.34989C20.9232 4.5691 21.7257 4.17871 22.7667 4.17871C22.8426 4.17871 23.2294 4.2004 23.9234 4.23655C24.6174 4.27631 25.532 4.52573 26.6706 4.98841C26.9959 5.42218 27.2707 6.0403 27.4948 6.83916C27.7623 7.87297 27.9322 8.85618 28.0008 9.78878C28.037 10.3888 28.0478 10.884 28.0298 11.2781C28.0081 11.3937 28.1635 11.4516 28.4924 11.4516ZM15.9999 11.466C14.1672 10.8226 12.5153 10.4539 11.0405 10.3671C9.57291 10.2732 8.64753 10.3961 8.26437 10.7431C8.28244 10.7431 8.17039 10.3635 7.93182 9.60082C7.68963 8.84172 7.54142 8.03202 7.48359 7.17171C7.42575 6.31502 7.49805 5.70775 7.70047 5.34989C8.31498 4.51127 9.23674 4.12811 10.4621 4.19317C11.6948 4.26185 12.8804 4.52573 14.019 4.98841C14.3444 5.42218 14.6191 6.05476 14.8432 6.88253C15.0637 7.70308 15.2119 8.52363 15.2914 9.34056C15.3782 10.1503 15.4107 10.6816 15.3926 10.931C15.3818 11.1841 15.5842 11.3612 15.9999 11.466Z" fill="white"/>
<path d="M46.2697 48.6399C45.1311 49.005 43.3526 49.1677 40.9344 49.1315C38.5233 49.0918 36.2352 48.4736 34.0664 47.2808C31.8975 46.0771 30.0685 44.0347 28.572 41.1502C27.0682 38.2692 26.2151 36.1691 26.0127 34.8461C25.8031 33.5267 25.926 32.7929 26.3887 32.6483C26.4284 32.6483 26.6019 32.8001 26.9092 33.0965C27.22 33.3966 28.2972 34.5207 30.148 36.4655C31.9987 38.403 34.1603 39.6537 36.64 40.2103C39.1161 40.7706 40.9488 40.5501 42.1345 39.5452C43.3201 38.5439 43.8731 37.6439 43.7972 36.8414C43.6237 34.481 42.9622 30.4325 41.8164 24.6959C40.4464 17.9797 39.7632 12.8034 39.7632 9.16698C39.7632 7.28731 39.9078 5.47271 40.197 3.71595C40.4283 2.83034 41.4296 2.01702 43.2044 1.27239C44.9756 0.520522 46.7396 0.0975982 48.4964 0C48.2723 1.64832 48.1638 3.65811 48.1638 6.02938C48.1638 11.3033 49.0603 18.7099 50.8532 28.2528C52.0099 34.4701 52.6244 38.215 52.7039 39.4874C52.7907 40.7526 52.6353 42.0177 52.2413 43.2901C51.8545 44.5625 50.8677 45.777 49.2772 46.9338C48.4096 47.7145 47.4047 48.2821 46.2697 48.6399Z" fill="white"/>
<path d="M77.1197 36.5233C86.518 39.1078 94.362 39.2705 100.659 37.0149C102.585 35.9268 103.815 34.7376 104.346 33.4435C104.884 32.1531 105 30.7035 104.693 29.0914C104.382 27.4828 103.525 26.0767 102.119 24.8694C100.962 24.0307 99.3322 23.409 97.2321 23.0042C95.1391 22.5993 92.8366 22.6788 90.3207 23.2355C87.8121 23.7958 85.4119 25.0646 83.1201 27.0382C80.8248 29.0046 78.8258 32.1675 77.1197 36.5233ZM67.7503 36.0606C69.2829 34.1628 70.418 32.3446 71.1626 30.6096C71.9506 28.7877 73.0423 26.8755 74.4303 24.8694C75.8256 22.8668 77.5679 21.016 79.65 19.3171C81.7393 17.611 84.2624 16.306 87.212 15.3987C90.1689 14.4842 93.6209 14.1842 97.5646 14.5023C101.613 14.9361 104.725 15.8759 106.905 17.3218C109.081 18.7677 110.758 20.3582 111.937 22.0932C113.112 23.8283 113.936 26.1526 114.409 29.0625C114.89 31.9759 114.691 34.8171 113.816 37.5932C112.938 40.3694 111.507 42.5165 109.522 44.0275C107.534 45.5312 104.404 46.6301 100.124 47.3241C95.8512 48.0109 91.2786 48.1447 86.4023 47.729C81.5333 47.306 76.3714 46.077 70.9168 44.0419C65.4585 42.0104 64.403 42.1044 67.7503 44.3311C68.0395 44.0998 68.0105 43.7491 67.6635 43.2756C67.2298 44.6456 66.5104 45.5023 65.5091 45.8493C64.5042 46.1963 62.921 43.6588 60.7521 38.2294C60.8751 38.1716 60.7413 37.4595 60.3473 36.0895C59.787 34.6834 59.252 32.9158 58.7424 30.7831C58.2399 28.6431 58.211 26.8611 58.6556 25.4333C59.1653 24.2765 59.9424 23.4921 60.9835 23.0764C62.0318 22.6644 63.1379 22.4945 64.2946 22.5704C65.4513 22.6391 66.3261 22.7945 66.9261 23.0331C67.5226 23.2644 67.8406 23.3331 67.8804 23.2355C67.5515 25.1549 67.3527 27.0671 67.2876 28.9757C67.2298 30.8843 67.3635 32.4892 67.6924 33.7905L67.7214 34.0797C67.7394 34.1195 67.7503 34.1195 67.7503 34.0797V36.0606ZM59.74 48.423C59.1617 48.423 58.0556 48.2784 56.4289 47.9892C54.8095 47.7 53.0817 46.3481 51.2526 43.9263C50.1935 42.7515 49.297 41.3815 48.5633 39.8199C47.8331 38.2583 47.2909 36.7474 46.9439 35.2798C46.7703 34.3544 46.6836 33.57 46.6836 32.923C46.6836 31.835 46.8535 31.2891 47.1897 31.2891C47.2692 31.2891 47.2583 31.2819 47.1607 31.2602C47.4716 31.7518 47.862 32.4567 48.3319 33.3712C48.979 34.7304 49.7561 36.0967 50.6598 37.4631C51.5671 38.8222 52.6624 39.8308 53.942 40.485C54.5565 40.8031 55.2288 40.9622 55.9518 40.9622C56.8193 40.9622 57.7591 40.7236 58.7713 40.2392C60.1955 39.4223 61.1064 38.1391 61.504 36.3931L71.6253 38.2873C70.342 42.0285 68.4045 44.7468 65.8128 46.4421C63.8247 47.7651 61.8004 48.423 59.74 48.423Z" fill="white"/>
<path d="M129.179 59.0503C128.127 59.0503 126.96 58.8985 125.68 58.6021C124.397 58.302 123.5 57.8104 122.991 57.1272C126.334 54.8138 129.114 52.5763 131.333 50.4183C133.549 48.2567 135.57 45.3938 137.392 41.8152C134.334 42.8382 132.132 43.3479 130.784 43.3479C128.738 43.3479 126.837 42.8526 125.073 41.8586C123.309 40.8682 121.87 39.4223 120.764 37.5209C119.665 35.6123 119.101 33.4724 119.072 31.1011C119.072 28.7009 119.759 26.467 121.14 24.3922C122.517 22.3209 124.469 20.6437 126.996 19.3605C129.53 18.0808 132.479 17.4374 135.845 17.4374L136.683 17.4085C139.141 17.4085 141.404 17.864 143.479 18.7676C145.55 19.6749 147.188 21.1028 148.395 23.0475C149.465 24.8043 150 26.9731 150 29.554L149.971 30.4505C149.393 35.475 148.315 39.762 146.747 43.3189C145.174 46.8686 143.385 49.7857 141.382 52.0811C139.376 54.3728 137.435 56.1585 135.555 57.4309C134.399 58.1828 132.953 58.678 131.218 58.9202C130.502 59.0069 129.822 59.0503 129.179 59.0503ZM133.618 39.2849C135.498 39.1403 137.001 38.3378 138.129 36.8703C139.264 35.3954 139.969 33.87 140.24 32.2868C140.385 31.4192 140.457 30.5734 140.457 29.742C140.457 29.2432 140.399 28.5238 140.284 27.5876C140.175 26.6442 139.777 25.6863 139.083 24.7103C138.389 23.7271 137.338 23.2355 135.931 23.2355C134.551 23.2752 133.372 23.6945 132.389 24.4934C131.406 25.285 130.603 26.2212 129.989 27.2984C128.926 29.2576 128.398 31.1301 128.398 32.923C128.398 33.5013 128.492 34.264 128.687 35.2075C128.89 36.1437 129.425 37.0582 130.292 37.9547C131.16 38.8439 132.266 39.2849 133.618 39.2849Z" fill="white"/>
</svg>
