<svg width="16" height="17" viewBox="0 0 16 17" fill="none" xmlns="http://www.w3.org/2000/svg">
<path fill-rule="evenodd" clip-rule="evenodd" d="M0.833374 8.50001C0.833374 4.54668 4.04671 1.33334 8.00004 1.33334C11.9534 1.33334 15.1667 4.54668 15.1667 8.50001C15.1667 12.4533 11.9534 15.6667 8.00004 15.6667C4.04671 15.6667 0.833374 12.4533 0.833374 8.50001ZM1.83337 8.50001C1.83337 11.9 4.60004 14.6667 8.00004 14.6667C11.4 14.6667 14.1667 11.9 14.1667 8.50001C14.1667 5.10001 11.4 2.33334 8.00004 2.33334C4.60004 2.33334 1.83337 5.10001 1.83337 8.50001Z" fill="#62B587"/>
<path d="M6.69964 10.7401L4.81297 8.8534C4.61964 8.66006 4.61964 8.34007 4.81297 8.14673C5.0063 7.9534 5.3263 7.9534 5.51964 8.14673L7.05297 9.68007L10.4796 6.2534C10.673 6.06007 10.993 6.06007 11.1863 6.2534C11.3796 6.44673 11.3796 6.76673 11.1863 6.96006L7.4063 10.7401C7.31297 10.8334 7.1863 10.8867 7.05297 10.8867C6.91964 10.8867 6.79297 10.8334 6.69964 10.7401Z" fill="#62B587"/>
</svg>
