<svg width="16" height="16" viewBox="0 0 16 16" fill="none" xmlns="http://www.w3.org/2000/svg">
<path d="M8.00004 3.33333C7.60004 3.33333 7.33337 3.06667 7.33337 2.66667V0.666667C7.33337 0.266667 7.60004 0 8.00004 0C8.40004 0 8.66671 0.266667 8.66671 0.666667V2.66667C8.66671 3.06667 8.40004 3.33333 8.00004 3.33333Z" fill="#FFBB38"/>
<path d="M8.00004 16C7.60004 16 7.33337 15.7333 7.33337 15.3333V13.3333C7.33337 12.9333 7.60004 12.6666 8.00004 12.6666C8.40004 12.6666 8.66671 12.9333 8.66671 13.3333V15.3333C8.66671 15.7333 8.40004 16 8.00004 16Z" fill="#FFBB38"/>
<path d="M2.66667 8.66671H0.666667C0.266667 8.66671 0 8.40004 0 8.00004C0 7.60004 0.266667 7.33337 0.666667 7.33337H2.66667C3.06667 7.33337 3.33333 7.60004 3.33333 8.00004C3.33333 8.40004 3.06667 8.66671 2.66667 8.66671Z" fill="#FFBB38"/>
<path d="M15.3333 8.66671H13.3333C12.9333 8.66671 12.6666 8.40004 12.6666 8.00004C12.6666 7.60004 12.9333 7.33337 13.3333 7.33337H15.3333C15.7333 7.33337 16 7.60004 16 8.00004C16 8.40004 15.7333 8.66671 15.3333 8.66671Z" fill="#FFBB38"/>
<path d="M12.6 6.00004C12.4 6.00004 12.1333 5.86671 12 5.66671C11.8 5.33337 11.9333 4.93337 12.2666 4.73337L14 3.73337C14.3333 3.53337 14.7333 3.66671 14.9333 4.00004C15.1333 4.33337 15 4.73337 14.6666 4.93337L12.9333 5.93337C12.8666 6.00004 12.7333 6.00004 12.6 6.00004Z" fill="#FFBB38"/>
<path d="M1.66663 12.3333C1.46663 12.3333 1.19996 12.2 1.06663 12C0.866626 11.6666 0.999959 11.2666 1.33329 11.0666L3.06663 10.0666C3.39996 9.86663 3.79996 9.99996 3.99996 10.3333C4.19996 10.6666 4.06663 11.0666 3.73329 11.2666L1.99996 12.2666C1.86663 12.3333 1.73329 12.3333 1.66663 12.3333Z" fill="#FFBB38"/>
<path d="M10.6667 4.0667C10.5334 4.0667 10.4667 4.0667 10.3334 4.00004C10 3.80004 9.93337 3.40004 10.0667 3.0667L11.0667 1.33337C11.2667 1.00004 11.6667 0.933369 12 1.0667C12.3334 1.2667 12.4 1.6667 12.2667 2.00004L11.2667 3.73337C11.1334 3.93337 10.8667 4.0667 10.6667 4.0667Z" fill="#FFBB38"/>
<path d="M4.33333 15C4.2 15 4.13333 15 4 14.9333C3.66666 14.7333 3.59999 14.3333 3.73333 14L4.73333 12.2666C4.93333 12 5.33333 11.8666 5.66666 12.0666C6 12.2666 6.06666 12.6666 5.93333 13L4.93333 14.6666C4.8 14.8666 4.53333 15 4.33333 15Z" fill="#FFBB38"/>
<path d="M3.39996 6C3.26663 6 3.13329 5.99999 3.06663 5.93333L1.33329 4.93333C0.999959 4.73333 0.866626 4.33333 1.06663 4C1.26663 3.66666 1.66663 3.59999 1.99996 3.73333L3.73329 4.73333C4.06663 4.93333 4.13329 5.33333 3.93329 5.66666C3.86663 5.86666 3.59996 6 3.39996 6Z" fill="#FFBB38"/>
<path d="M14.3334 12.3334C14.2001 12.3334 14.1334 12.3334 14.0001 12.2667L12.2667 11.2667C11.9334 11.0667 11.8667 10.6667 12.0001 10.3334C12.2001 10 12.6001 9.93337 12.9334 10.0667L14.6667 11.0667C15.0001 11.2667 15.0667 11.6667 14.9334 12C14.8001 12.2 14.6001 12.3334 14.3334 12.3334Z" fill="#FFBB38"/>
<path d="M5.33333 4.06663C5.13333 4.06663 4.86666 3.93329 4.73333 3.73329L3.73333 1.99996C3.59999 1.66663 3.66666 1.26663 4 1.06663C4.33333 0.866626 4.73333 0.999959 4.93333 1.33329L5.93333 3.06663C6.06666 3.39996 6 3.79996 5.66666 3.93329C5.53333 3.99996 5.46666 4.06663 5.33333 4.06663Z" fill="#FFBB38"/>
<path d="M11.6666 15C11.4666 15 11.2 14.8666 11.0666 14.6666L10.0666 12.9333C9.86663 12.6 9.99996 12.2 10.3333 12C10.6666 11.8 11.0666 11.9333 11.2666 12.2666L12.2666 14C12.4666 14.3333 12.3333 14.7333 12 14.9333C11.8666 15 11.8 15 11.6666 15Z" fill="#FFBB38"/>
</svg>
