<svg width="16" height="18" viewBox="0 0 16 18" fill="none" xmlns="http://www.w3.org/2000/svg">
<path d="M3.36428 1L0.999939 4.15245V15.186C0.999939 15.6041 1.16601 16.005 1.4616 16.3006C1.7572 16.5962 2.15812 16.7623 2.57617 16.7623H13.6098C14.0278 16.7623 14.4287 16.5962 14.7243 16.3006C15.0199 16.005 15.186 15.6041 15.186 15.186V4.15245L12.8216 1H3.36428Z" stroke="#369BFF" stroke-width="1.5" stroke-linecap="round" stroke-linejoin="round"/>
<path d="M0.999939 4.15234H15.186" stroke="#369BFF" stroke-width="1.5" stroke-linecap="round" stroke-linejoin="round"/>
<path d="M11.2455 7.30469C11.2455 8.14077 10.9134 8.94261 10.3222 9.53381C9.731 10.125 8.92916 10.4571 8.09308 10.4571C7.257 10.4571 6.45516 10.125 5.86396 9.53381C5.27276 8.94261 4.94063 8.14077 4.94063 7.30469" stroke="#369BFF" stroke-width="1.5" stroke-linecap="round" stroke-linejoin="round"/>
</svg>
