<svg width="16" height="17" viewBox="0 0 16 17" fill="none" xmlns="http://www.w3.org/2000/svg">
<path d="M12.1471 5.94299C12.1471 4.7996 11.6929 3.70304 10.8844 2.89454C10.0759 2.08605 8.97931 1.63184 7.83593 1.63184C6.69254 1.63184 5.59598 2.08605 4.78748 2.89454C3.97899 3.70304 3.52478 4.7996 3.52478 5.94299C3.52478 10.9727 1.3692 12.4097 1.3692 12.4097H14.3026C14.3026 12.4097 12.1471 10.9727 12.1471 5.94299Z" stroke="#FFAA2A" stroke-width="1.5" stroke-linecap="round" stroke-linejoin="round"/>
<path d="M9.07896 15.2842C8.95264 15.5019 8.77132 15.6827 8.55316 15.8084C8.33501 15.934 8.08767 16.0002 7.83591 16.0002C7.58416 16.0002 7.33682 15.934 7.11866 15.8084C6.90051 15.6827 6.71919 15.5019 6.59286 15.2842" stroke="#FFAA2A" stroke-width="1.5" stroke-linecap="round" stroke-linejoin="round"/>
</svg>
