<svg width="17" height="15" viewBox="0 0 17 15" fill="none" xmlns="http://www.w3.org/2000/svg">
<path d="M8.24999 4.58296C8.33634 6.759 10.098 8.55509 12.2568 8.72779C12.8613 8.76233 13.4658 8.69325 14.0185 8.52055C14.3121 8.41693 15.4002 8.96958 16.0219 9.28044C16.1773 9.34952 16.3673 9.21136 16.2982 9.03866C16.0737 8.4342 15.7456 7.4498 15.901 7.2771C16.6437 6.43087 17.0754 5.29104 16.9891 4.04759C16.8336 1.87155 15.0202 0.110001 12.8268 0.00638007C10.2534 -0.131781 8.12909 1.99244 8.24999 4.58296Z" fill="#F5C0C0"/>
<path d="M12.3432 8.31358C12.205 11.3877 9.73529 13.9264 6.67833 14.1682C5.81479 14.22 4.98578 14.1163 4.19132 13.8746C3.79409 13.7364 2.25698 14.4963 1.35889 14.9453C1.15164 15.0489 0.875301 14.8417 0.978926 14.5999C1.30707 13.7364 1.75612 12.3721 1.54887 12.113C0.495341 10.9214 -0.0918712 9.31525 0.0117544 7.55369C0.236276 4.49688 2.80965 2.00998 5.88387 1.87182C9.51077 1.68185 12.4986 4.68685 12.3432 8.31358Z" fill="#FF7171"/>
<path d="M4.6058 6.34716H7.78365C7.9909 6.34716 8.18088 6.15719 8.18088 5.94995C8.18088 5.74271 7.9909 5.55273 7.78365 5.55273H4.6058C4.39855 5.55273 4.20857 5.74271 4.20857 5.94995C4.17402 6.15719 4.36401 6.34716 4.6058 6.34716Z" fill="white"/>
<path d="M7.78365 9.66113H4.6058C4.39855 9.66113 4.20857 9.8511 4.20857 10.0583C4.20857 10.2656 4.39855 10.4556 4.6058 10.4556H7.78365C7.99091 10.4556 8.18089 10.2656 8.18089 10.0583C8.19816 9.8511 8.00818 9.66113 7.78365 9.66113Z" fill="white"/>
<path d="M9.40713 7.59082H2.96507C2.75782 7.59082 2.56784 7.78079 2.56784 7.98803C2.56784 8.19528 2.75782 8.38525 2.96507 8.38525H9.37259C9.57984 8.38525 9.76982 8.19528 9.76982 7.98803C9.80436 7.78079 9.61438 7.59082 9.40713 7.59082Z" fill="white"/>
</svg>
