<svg width="22" height="22" viewBox="0 0 22 22" fill="none" xmlns="http://www.w3.org/2000/svg">
<path d="M6.5799 12.5925C8.1074 12.5925 9.33157 13.8286 9.33157 15.3669V19.06C9.33157 20.5875 8.1074 21.8333 6.5799 21.8333H2.91823C1.40156 21.8333 0.166565 20.5875 0.166565 19.06V15.3669C0.166565 13.8286 1.40156 12.5925 2.91823 12.5925H6.5799ZM19.0817 12.5925C20.5983 12.5925 21.8333 13.8286 21.8333 15.3669V19.06C21.8333 20.5875 20.5983 21.8333 19.0817 21.8333H15.42C13.8925 21.8333 12.6683 20.5875 12.6683 19.06V15.3669C12.6683 13.8286 13.8925 12.5925 15.42 12.5925H19.0817ZM6.5799 0.166992C8.1074 0.166992 9.33157 1.41283 9.33157 2.94141V6.63449C9.33157 8.17282 8.1074 9.40782 6.5799 9.40782H2.91823C1.40156 9.40782 0.166565 8.17282 0.166565 6.63449V2.94141C0.166565 1.41283 1.40156 0.166992 2.91823 0.166992H6.5799ZM19.0817 0.166992C20.5983 0.166992 21.8333 1.41283 21.8333 2.94141V6.63449C21.8333 8.17282 20.5983 9.40782 19.0817 9.40782H15.42C13.8925 9.40782 12.6683 8.17282 12.6683 6.63449V2.94141C12.6683 1.41283 13.8925 0.166992 15.42 0.166992H19.0817Z" fill="#CACBCE"/>
</svg>
