<svg width="14" height="15" viewBox="0 0 14 15" fill="none" xmlns="http://www.w3.org/2000/svg">
<g clip-path="url(#clip0_403_1002)">
<path d="M10.5615 3.94617C10.5244 3.94617 10.4867 3.93718 10.4514 3.91805C10.3303 3.85277 10.2814 3.69457 10.3423 3.56467C11.0509 2.05644 12.049 0.600762 12.3191 0.311484C12.5054 0.111826 12.7528 0.00114258 13.0159 0C13.0171 0 13.0185 0 13.02 0C13.2821 0 13.528 0.108984 13.7127 0.307002C13.8087 0.409805 13.8087 0.576445 13.7127 0.67916C13.6168 0.781963 13.4613 0.781963 13.3654 0.67916C13.2728 0.579932 13.144 0.525586 13.0178 0.526348C12.8854 0.526992 12.7607 0.582891 12.6664 0.68376C12.469 0.895166 11.4959 2.27991 10.7813 3.80136C10.7381 3.89323 10.6515 3.94617 10.5615 3.94617Z" fill="#707487"/>
<path d="M11.2986 1.5791H7.9267C7.53585 1.5791 7.16099 1.74545 6.8846 2.04158L0.144422 9.26317C-0.047449 9.46872 -0.047449 9.80197 0.144422 10.0075L4.66022 14.8459C4.85209 15.0514 5.16309 15.0514 5.35494 14.8459L12.0951 7.62425C12.3715 7.32815 12.5267 6.92651 12.5267 6.50772V2.89494C12.5268 2.16823 11.9769 1.5791 11.2986 1.5791ZM11.0828 4.24271C10.795 4.55106 10.3285 4.55106 10.0407 4.24271C9.75293 3.93437 9.75293 3.4345 10.0407 3.12618C10.3285 2.81786 10.7951 2.81783 11.0828 3.12618C11.3706 3.43453 11.3706 3.93442 11.0828 4.24271Z" fill="#FFDC64"/>
<path d="M0.881692 10.0531L7.62182 2.83148C7.89821 2.53538 8.27306 2.369 8.66391 2.369H12.0359C12.182 2.369 12.3201 2.40105 12.45 2.45118C12.2796 1.94391 11.8308 1.5791 11.2986 1.5791H7.9267C7.53585 1.5791 7.16099 1.74545 6.8846 2.04158L0.144422 9.26317C-0.047449 9.46872 -0.047449 9.80197 0.144422 10.0075L0.881664 10.7974C0.689821 10.5919 0.689821 10.2587 0.881692 10.0531Z" fill="#FFC850"/>
<path d="M10.562 3.94617C10.4721 3.94617 10.3855 3.89323 10.3423 3.80124C10.2814 3.67145 10.3303 3.51325 10.4515 3.44786C11.8713 2.68263 13.1637 1.63972 13.3611 1.42816C13.4554 1.32718 13.5075 1.19353 13.5082 1.05167C13.5087 0.910576 13.458 0.77833 13.3655 0.67916C13.2729 0.57999 13.1441 0.525586 13.0179 0.526348C12.8855 0.526992 12.7608 0.582891 12.6665 0.68376C12.5706 0.786562 12.4151 0.786562 12.3192 0.68376C12.2232 0.581103 12.2232 0.414404 12.3192 0.311602C12.5055 0.111797 12.7528 0.00114258 13.0159 0C13.0171 0 13.0186 0 13.02 0C13.2822 0 13.528 0.108984 13.7128 0.307002C13.8987 0.506045 14.0004 0.771269 13.9994 1.05372C13.9982 1.3355 13.8951 1.60063 13.7084 1.80032C13.4386 2.08972 12.0797 3.15937 10.6721 3.91816C10.6369 3.93718 10.599 3.94617 10.562 3.94617Z" fill="#7F8499"/>
<path d="M6.63177 10.8294C6.46218 10.8294 6.32472 10.6821 6.32472 10.5004V5.28991C6.32472 5.10821 6.46218 4.96094 6.63177 4.96094C6.80135 4.96094 6.93881 5.10821 6.93881 5.28991V10.5004C6.93881 10.6821 6.80135 10.8294 6.63177 10.8294Z" fill="white"/>
<path d="M4.89487 9.01333C4.61615 9.01333 4.35395 8.8969 4.15678 8.68564C3.9596 8.4745 3.85094 8.1936 3.85094 7.89483C3.85094 7.59606 3.9596 7.31517 4.15678 7.10391C4.35395 6.89276 4.61612 6.77637 4.89487 6.77637C5.17383 6.77637 5.43603 6.89279 5.63296 7.10417C5.83013 7.31531 5.9388 7.59621 5.9388 7.89483C5.9388 8.1936 5.83013 8.4745 5.63296 8.68576C5.43603 8.8969 5.17385 9.01333 4.89487 9.01333ZM4.89487 7.43429C4.78021 7.43429 4.67226 7.48222 4.59097 7.56923C4.50968 7.65624 4.46502 7.77188 4.46502 7.89483C4.46502 8.01779 4.50965 8.13346 4.59097 8.22035C4.75361 8.39473 5.03618 8.39394 5.19879 8.22062C5.28009 8.13352 5.32474 8.01785 5.32474 7.89486C5.32474 7.7719 5.28011 7.65624 5.19879 7.56935C5.19879 7.56923 5.19879 7.56923 5.19879 7.56908C5.11747 7.48222 5.00976 7.43429 4.89487 7.43429Z" fill="white"/>
<path d="M8.36867 9.0133C8.08971 9.0133 7.82751 8.89687 7.63058 8.6855C7.4334 8.4745 7.32474 8.1936 7.32474 7.89483C7.32474 7.59606 7.4334 7.31517 7.63058 7.10391C7.82751 6.89276 8.08968 6.77637 8.36867 6.77637C8.64738 6.77637 8.90958 6.89279 9.10676 7.10405C9.30393 7.31531 9.4126 7.59609 9.4126 7.89486C9.4126 8.19363 9.30393 8.47453 9.10676 8.68579C8.90955 8.89688 8.64738 9.0133 8.36867 9.0133ZM8.36867 7.43426C8.25377 7.43426 8.14606 7.48219 8.06477 7.56908C7.98348 7.65618 7.93882 7.77185 7.93882 7.89483C7.93882 8.01779 7.98345 8.13346 8.06477 8.22035C8.22741 8.39446 8.50998 8.39487 8.67259 8.22047C8.75389 8.13346 8.79854 8.01782 8.79854 7.89486C8.79854 7.7719 8.75391 7.65624 8.67259 7.56935C8.67259 7.56923 8.67259 7.56923 8.67259 7.56923C8.59127 7.48219 8.48335 7.43426 8.36867 7.43426Z" fill="white"/>
</g>
<defs>
<clipPath id="clip0_403_1002">
<rect width="14" height="15" fill="white"/>
</clipPath>
</defs>
</svg>
