<svg width="19" height="19" viewBox="0 0 19 19" fill="none" xmlns="http://www.w3.org/2000/svg">
<path d="M9.44864 17.9998C14.1147 17.9998 17.8973 14.2172 17.8973 9.55118C17.8973 4.88512 14.1147 1.10254 9.44864 1.10254C4.78258 1.10254 1 4.88512 1 9.55118C1 14.2172 4.78258 17.9998 9.44864 17.9998Z" stroke="#FB6D3A" stroke-width="1.67823" stroke-linecap="round" stroke-linejoin="round"/>
<path d="M6.99037 7.01675C7.189 6.4521 7.58106 5.97597 8.0971 5.67269C8.61315 5.3694 9.21988 5.25854 9.80983 5.35973C10.3998 5.46092 10.9349 5.76764 11.3204 6.22556C11.7058 6.68348 11.9168 7.26305 11.9159 7.86162C11.9159 9.55134 9.38133 10.3962 9.38133 10.3962" stroke="#FB6D3A" stroke-width="1.67823" stroke-linecap="round" stroke-linejoin="round"/>
<path d="M9.44926 13.7334H9.45727" stroke="#FB6D3A" stroke-width="1.67823" stroke-linecap="round" stroke-linejoin="round"/>
</svg>
