<svg width="25" height="24" viewBox="0 0 25 24" fill="none" xmlns="http://www.w3.org/2000/svg">
<path d="M19.6922 12.0782L19.1664 12.4162L19.1664 12.4162L19.6922 12.0782ZM20.7996 13.8012L21.3254 13.4632L21.3254 13.4632L20.7996 13.8012ZM3.70036 13.8012L3.1746 13.4632L3.1746 13.4632L3.70036 13.8012ZM4.8078 12.0782L5.33355 12.4162L4.8078 12.0782ZM19.2796 18.0116L19.1095 17.4102L19.1095 17.4102L19.2796 18.0116ZM5.22036 18.0116L5.39048 17.4102L5.39048 17.4102L5.22036 18.0116ZM8.60179 20.2418L8.68571 19.6225C8.43342 19.5883 8.18561 19.7106 8.05923 19.9316C7.93285 20.1526 7.95316 20.4282 8.11057 20.6283L8.60179 20.2418ZM15.8982 20.2418L16.3894 20.6283C16.5468 20.4282 16.5672 20.1526 16.4408 19.9316C16.3144 19.7106 16.0666 19.5883 15.8143 19.6225L15.8982 20.2418ZM18.3741 9V9.7041H19.6241V9H18.3741ZM19.1664 12.4162L20.2739 14.1391L21.3254 13.4632L20.218 11.7403L19.1664 12.4162ZM4.22612 14.1391L5.33355 12.4162L4.28204 11.7403L3.1746 13.4632L4.22612 14.1391ZM6.12587 9.7041V9H4.87587V9.7041H6.12587ZM19.1095 17.4102C14.6184 18.6805 9.88163 18.6805 5.39048 17.4102L5.05025 18.613C9.76385 19.9463 14.7361 19.9463 19.4498 18.613L19.1095 17.4102ZM5.33355 12.4162C5.85102 11.6111 6.12587 10.6675 6.12587 9.7041H4.87587C4.87587 10.4307 4.66841 11.1392 4.28204 11.7403L5.33355 12.4162ZM18.3741 9.7041C18.3741 10.6675 18.649 11.6111 19.1664 12.4162L20.218 11.7403C19.8316 11.1392 19.6241 10.4307 19.6241 9.7041H18.3741ZM3.1746 13.4632C1.94789 15.3717 2.8663 17.9952 5.05025 18.613L5.39048 17.4102C4.05579 17.0326 3.42976 15.378 4.22612 14.1391L3.1746 13.4632ZM20.2739 14.1391C21.0702 15.378 20.4442 17.0326 19.1095 17.4102L19.4498 18.613C21.6337 17.9952 22.5521 15.3717 21.3254 13.4632L20.2739 14.1391ZM12.25 2.625C15.611 2.625 18.3741 5.45749 18.3741 9H19.6241C19.6241 4.81052 16.3439 1.375 12.25 1.375V2.625ZM12.25 1.375C8.15608 1.375 4.87587 4.81052 4.87587 9H6.12587C6.12587 5.45749 8.88904 2.625 12.25 2.625V1.375ZM8.11057 20.6283C9.06701 21.8441 10.5675 22.625 12.25 22.625V21.375C10.9609 21.375 9.81874 20.7779 9.09301 19.8554L8.11057 20.6283ZM8.51787 20.8612C10.9953 21.1969 13.5047 21.1969 15.9821 20.8612L15.8143 19.6225C13.4482 19.9431 11.0518 19.9431 8.68571 19.6225L8.51787 20.8612ZM12.25 22.625C13.9325 22.625 15.433 21.8441 16.3894 20.6283L15.407 19.8554C14.6813 20.7779 13.5391 21.375 12.25 21.375V22.625Z" fill="#212121"/>
</svg>
