<svg width="17" height="17" viewBox="0 0 17 17" fill="none" xmlns="http://www.w3.org/2000/svg">
<path fill-rule="evenodd" clip-rule="evenodd" d="M1.33337 8.49999C1.33337 4.54666 4.54671 1.33333 8.50004 1.33333C12.4534 1.33333 15.6667 4.54666 15.6667 8.49999C15.6667 12.4533 12.4534 15.6667 8.50004 15.6667C4.54671 15.6667 1.33337 12.4533 1.33337 8.49999ZM2.33337 8.49999C2.33337 11.9 5.10004 14.6667 8.50004 14.6667C11.9 14.6667 14.6667 11.9 14.6667 8.49999C14.6667 5.09999 11.9 2.33333 8.50004 2.33333C5.10004 2.33333 2.33337 5.09999 2.33337 8.49999Z" fill="#ED1C24"/>
<path d="M8 9.16666V5.83333C8 5.55999 8.22667 5.33333 8.5 5.33333C8.77333 5.33333 9 5.55999 9 5.83333V9.16666C9 9.43999 8.77333 9.66666 8.5 9.66666C8.22667 9.66666 8 9.43999 8 9.16666Z" fill="#ED1C24"/>
<path d="M8.24671 11.7799C8.16671 11.7466 8.09337 11.6999 8.02671 11.6399C7.96671 11.5732 7.92004 11.5066 7.88671 11.4199C7.85337 11.3399 7.83337 11.2533 7.83337 11.1666C7.83337 11.0799 7.85337 10.9933 7.88671 10.9133C7.92004 10.8333 7.96671 10.7599 8.02671 10.6933C8.09337 10.6333 8.16671 10.5866 8.24671 10.5533C8.40671 10.4866 8.59337 10.4866 8.75337 10.5533C8.83337 10.5866 8.90671 10.6333 8.97337 10.6933C9.03337 10.7599 9.08004 10.8333 9.11337 10.9133C9.14671 10.9933 9.16671 11.0799 9.16671 11.1666C9.16671 11.2533 9.14671 11.3399 9.11337 11.4199C9.08004 11.5066 9.03337 11.5732 8.97337 11.6399C8.90671 11.6999 8.83337 11.7466 8.75337 11.7799C8.67337 11.8133 8.58671 11.8333 8.50004 11.8333C8.41337 11.8333 8.32671 11.8133 8.24671 11.7799Z" fill="#ED1C24"/>
</svg>
