<svg width="24" height="8" viewBox="0 0 24 8" fill="none" xmlns="http://www.w3.org/2000/svg">
<path d="M4.12317 0.919391L4.78611 4.37104C3.88283 1.38627 0 0.170461 0 0.170461H3.04565C3.82408 0.170461 4.12317 0.919391 4.12317 0.919391Z" fill="#1A1F71"/>
<path d="M15.8157 1.5629C14.8364 1.5629 14.4952 1.89149 14.4952 2.33236C14.4952 2.6777 14.933 2.90728 15.458 3.18262C16.2445 3.59502 17.2267 4.11009 17.2271 5.27058C17.2271 6.88071 15.2696 8 13.859 8C12.4483 8 11.7193 7.55776 11.7193 7.55776L12.0598 5.94558C12.0598 5.94558 12.8108 6.38987 13.9498 6.38987C15.086 6.38987 15.2456 5.89971 15.2456 5.69023C15.2456 5.17418 14.7695 4.93084 14.2149 4.64741C13.4416 4.25217 12.5157 3.77897 12.5157 2.3796C12.5157 1.05015 13.5846 0 15.6555 0C16.5668 0 17.4995 0.373096 17.4995 0.373096L17.181 2.05442C17.181 2.05442 16.452 1.5629 15.8157 1.5629Z" fill="#1A1F71"/>
<path fill-rule="evenodd" clip-rule="evenodd" d="M20.4042 0.154031H22.4752L24 7.76108H22.2095L21.9972 6.67534H19.533L19.1278 7.76108H17.173L20.4042 0.154031ZM21.1506 2.34674L20.0791 5.22129H21.7121L21.1506 2.34674Z" fill="#1A1F71"/>
<path d="M5.02312 5.57119L6.82501 0.154113L8.93133 0.153429L5.93575 7.76048H3.76534L2.1851 1.60063C2.1851 1.60063 3.85013 2.46525 4.87625 4.82295C4.91964 5.10979 5.02312 5.57119 5.02312 5.57119Z" fill="#1A1F71"/>
<path d="M10.5109 7.76116H8.54278L9.71043 0.154113H11.7026L10.5109 7.76116Z" fill="#1A1F71"/>
</svg>
