<svg width="10" height="15" viewBox="0 0 10 15" fill="none" xmlns="http://www.w3.org/2000/svg">
<path fill-rule="evenodd" clip-rule="evenodd" d="M2.83984 14.6667C1.57984 14.6667 0.659841 14.14 0.306508 13.2333C-0.0601588 12.2867 0.279841 11.1133 1.15984 10.32L4.25317 7.5L1.15984 4.68C0.279841 3.88667 -0.0601588 2.71334 0.306508 1.76667C0.659841 0.853336 1.57984 0.333336 2.83984 0.333336H7.15984C8.41984 0.333336 9.33984 0.860003 9.69318 1.76667C10.0598 2.71334 9.71984 3.88667 8.83984 4.68L5.74651 7.5L8.84651 10.32C9.71984 11.1133 10.0665 12.2867 9.69984 13.2333C9.33984 14.14 8.41984 14.6667 7.15984 14.6667H2.83984ZM1.83317 11.0533C1.27317 11.5667 1.02651 12.3133 1.23984 12.8667C1.43984 13.38 2.00651 13.6667 2.83984 13.6667H7.15984C7.99317 13.6667 8.55984 13.3867 8.75984 12.8667C8.97317 12.3133 8.73317 11.5667 8.16651 11.0533L4.99984 8.17334L1.83317 11.0533ZM1.23984 2.13334C1.02651 2.68667 1.26651 3.43334 1.83317 3.94667L4.99984 6.82667L8.16651 3.94667C8.72651 3.43334 8.97317 2.68667 8.75984 2.13334C8.55984 1.62 7.99317 1.33334 7.15984 1.33334H2.83984C2.00651 1.33334 1.43984 1.61334 1.23984 2.13334Z" fill="#FFBB38"/>
</svg>
